{
	"asset":{
		"generator":"Khronos glTF Blender I/O v4.4.56",
		"version":"2.0"
	},
	"extensionsUsed":[
		"KHR_materials_specular"
	],
	"scene":0,
	"scenes":[
		{
			"name":"Scene",
			"nodes":[
				0
			]
		}
	],
	"nodes":[
		{
			"mesh":0,
			"name":"fence0"
		}
	],
	"materials":[
		{
			"alphaMode":"BLEND",
			"doubleSided":true,
			"extensions":{
				"KHR_materials_specular":{
					"specularFactor":0
				}
			},
			"name":"T_fantasy_props08",
			"normalTexture":{
				"index":0
			},
			"pbrMetallicRoughness":{
				"baseColorTexture":{
					"index":1
				},
				"metallicRoughnessTexture":{
					"index":2
				}
			}
		}
	],
	"meshes":[
		{
			"name":"Plane.017",
			"primitives":[
				{
					"attributes":{
						"POSITION":0,
						"NORMAL":1,
						"TEXCOORD_0":2
					},
					"indices":3,
					"material":0
				}
			]
		}
	],
	"textures":[
		{
			"sampler":0,
			"source":0
		},
		{
			"sampler":0,
			"source":1
		},
		{
			"sampler":0,
			"source":2
		}
	],
	"images":[
		{
			"mimeType":"image/jpeg",
			"name":"T_fantasy_props08_NormalGL",
			"uri":"textures/T_fantasy_props08_NormalGL.jpg"
		},
		{
			"mimeType":"image/png",
			"name":"T_fantasy_props08_BaseColor-T_fantasy_props08_Opacity",
			"uri":"textures/T_fantasy_props08_BaseColor-T_fantasy_props08_Opacity.png"
		},
		{
			"mimeType":"image/png",
			"name":"T_fantasy_props08_Metallic-T_fantasy_props08_Roughness",
			"uri":"textures/T_fantasy_props08_Metallic-T_fantasy_props08_Roughness.png"
		}
	],
	"accessors":[
		{
			"bufferView":0,
			"componentType":5126,
			"count":621,
			"max":[
				0.92818683385849,
				1.6602493524551392,
				0.05021931231021881
			],
			"min":[
				-0.9539036750793457,
				-0.01529049314558506,
				-0.0691351518034935
			],
			"type":"VEC3"
		},
		{
			"bufferView":1,
			"componentType":5126,
			"count":621,
			"type":"VEC3"
		},
		{
			"bufferView":2,
			"componentType":5126,
			"count":621,
			"type":"VEC2"
		},
		{
			"bufferView":3,
			"componentType":5123,
			"count":2484,
			"type":"SCALAR"
		}
	],
	"bufferViews":[
		{
			"buffer":0,
			"byteLength":7452,
			"byteOffset":0,
			"target":34962
		},
		{
			"buffer":0,
			"byteLength":7452,
			"byteOffset":7452,
			"target":34962
		},
		{
			"buffer":0,
			"byteLength":4968,
			"byteOffset":14904,
			"target":34962
		},
		{
			"buffer":0,
			"byteLength":4968,
			"byteOffset":19872,
			"target":34963
		}
	],
	"samplers":[
		{
			"magFilter":9729,
			"minFilter":9987
		}
	],
	"buffers":[
		{
			"byteLength":24840,
			"uri":"fence0.bin"
		}
	]
}
