{
	"asset":{
		"generator":"Khronos glTF Blender I/O v4.4.56",
		"version":"2.0"
	},
	"extensionsUsed":[
		"KHR_materials_specular",
		"KHR_materials_ior"
	],
	"scene":0,
	"scenes":[
		{
			"name":"Scene",
			"nodes":[
				0
			]
		}
	],
	"nodes":[
		{
			"mesh":0,
			"name":"bridge",
			"rotation":[
				0,
				0.7071068286895752,
				0,
				0.7071067094802856
			]
		}
	],
	"materials":[
		{
			"doubleSided":true,
			"extensions":{
				"KHR_materials_specular":{
					"specularFactor":0.019999999552965164
				},
				"KHR_materials_ior":{
					"ior":1.4500000476837158
				}
			},
			"name":"fantasy_props02_mat",
			"normalTexture":{
				"index":0
			},
			"pbrMetallicRoughness":{
				"baseColorTexture":{
					"index":1
				},
				"metallicRoughnessTexture":{
					"index":2
				}
			}
		}
	],
	"meshes":[
		{
			"name":"Cube.012",
			"primitives":[
				{
					"attributes":{
						"POSITION":0,
						"NORMAL":1,
						"TEXCOORD_0":2
					},
					"indices":3,
					"material":0
				}
			]
		}
	],
	"textures":[
		{
			"sampler":0,
			"source":0
		},
		{
			"sampler":0,
			"source":1
		},
		{
			"sampler":0,
			"source":2
		}
	],
	"images":[
		{
			"mimeType":"image/jpeg",
			"name":"T_fantasy_props02_NormaL_GL",
			"uri":"textures/T_fantasy_props02_NormaL_GL.jpg"
		},
		{
			"mimeType":"image/jpeg",
			"name":"T_fantasy_props02_BaseColor",
			"uri":"textures/T_fantasy_props02_BaseColor.jpg"
		},
		{
			"mimeType":"image/png",
			"name":"T_fantasy_props02_Metallic-T_fantasy_props02_Roughness",
			"uri":"textures/T_fantasy_props02_Metallic-T_fantasy_props02_Roughness.png"
		}
	],
	"accessors":[
		{
			"bufferView":0,
			"componentType":5126,
			"count":2534,
			"max":[
				1.027703881263733,
				1.5826160907745361,
				3.9895503520965576
			],
			"min":[
				-1.027703881263733,
				-1.245346188545227,
				-4.211282730102539
			],
			"type":"VEC3"
		},
		{
			"bufferView":1,
			"componentType":5126,
			"count":2534,
			"type":"VEC3"
		},
		{
			"bufferView":2,
			"componentType":5126,
			"count":2534,
			"type":"VEC2"
		},
		{
			"bufferView":3,
			"componentType":5123,
			"count":8640,
			"type":"SCALAR"
		}
	],
	"bufferViews":[
		{
			"buffer":0,
			"byteLength":30408,
			"byteOffset":0,
			"target":34962
		},
		{
			"buffer":0,
			"byteLength":30408,
			"byteOffset":30408,
			"target":34962
		},
		{
			"buffer":0,
			"byteLength":20272,
			"byteOffset":60816,
			"target":34962
		},
		{
			"buffer":0,
			"byteLength":17280,
			"byteOffset":81088,
			"target":34963
		}
	],
	"samplers":[
		{
			"magFilter":9729,
			"minFilter":9987
		}
	],
	"buffers":[
		{
			"byteLength":98368,
			"uri":"bridge.bin"
		}
	]
}
