{
	"asset":{
		"generator":"Khronos glTF Blender I/O v4.4.56",
		"version":"2.0"
	},
	"scene":0,
	"scenes":[
		{
			"name":"Scene",
			"nodes":[
				0,
				1,
				2,
				3,
				4,
				5,
				6,
				7,
				8,
				9,
				10,
				11,
				12,
				13,
				14,
				15
			]
		}
	],
	"nodes":[
		{
			"mesh":0,
			"name":"Icosphere",
			"scale":[
				100,
				100,
				100
			],
			"translation":[
				20,
				-100,
				0
			]
		},
		{
			"mesh":1,
			"name":"Icosphere.001",
			"scale":[
				100,
				100,
				100
			],
			"translation":[
				-20,
				-100,
				0
			]
		},
		{
			"mesh":2,
			"name":"Icosphere.002",
			"scale":[
				100,
				100,
				100
			],
			"translation":[
				0,
				-100,
				0
			]
		},
		{
			"mesh":3,
			"name":"Icosphere.003",
			"scale":[
				100,
				100,
				100
			],
			"translation":[
				0,
				-100,
				-20
			]
		},
		{
			"mesh":4,
			"name":"Icosphere.004",
			"scale":[
				100,
				100,
				100
			],
			"translation":[
				-20,
				-100,
				-20
			]
		},
		{
			"mesh":5,
			"name":"Icosphere.005",
			"scale":[
				100,
				100,
				100
			],
			"translation":[
				20,
				-100,
				-20
			]
		},
		{
			"mesh":6,
			"name":"Icosphere.006",
			"scale":[
				100,
				100,
				100
			],
			"translation":[
				0,
				-100,
				20
			]
		},
		{
			"mesh":7,
			"name":"Icosphere.007",
			"scale":[
				100,
				100,
				100
			],
			"translation":[
				-20,
				-100,
				20
			]
		},
		{
			"mesh":8,
			"name":"Icosphere.008",
			"scale":[
				100,
				100,
				100
			],
			"translation":[
				20,
				-100,
				20
			]
		},
		{
			"mesh":9,
			"name":"Icosphere.009",
			"scale":[
				3,
				3,
				3
			],
			"translation":[
				9.300000190734863,
				-1.2500001192092896,
				1.6800003051757812
			]
		},
		{
			"mesh":10,
			"name":"Icosphere.010",
			"scale":[
				1.5,
				1.5,
				1.5
			],
			"translation":[
				0,
				1.4900000095367432,
				0
			]
		},
		{
			"mesh":11,
			"name":"Icosphere.011",
			"scale":[
				5,
				5,
				5
			],
			"translation":[
				-7.739999771118164,
				-1.3000000715255737,
				-8.269999504089355
			]
		},
		{
			"mesh":12,
			"name":"Icosphere.012",
			"scale":[
				4,
				4,
				4
			],
			"translation":[
				7.59999942779541,
				-1.5800000429153442,
				-9.780000686645508
			]
		},
		{
			"mesh":13,
			"name":"Icosphere.013",
			"scale":[
				3,
				3,
				3
			],
			"translation":[
				3.380000114440918,
				-0.03000009059906006,
				9.739999771118164
			]
		},
		{
			"mesh":14,
			"name":"Icosphere.014",
			"scale":[
				3,
				3,
				3
			],
			"translation":[
				-5.289999961853027,
				-0.03000009059906006,
				9.739999771118164
			]
		},
		{
			"mesh":15,
			"name":"Icosphere.015",
			"translation":[
				-6.460000038146973,
				-0.03000009059906006,
				1.9299999475479126
			]
		}
	],
	"meshes":[
		{
			"name":"Icosphere.014",
			"primitives":[
				{
					"attributes":{
						"POSITION":0,
						"NORMAL":1,
						"TEXCOORD_0":2
					},
					"indices":3
				}
			]
		},
		{
			"name":"Icosphere.015",
			"primitives":[
				{
					"attributes":{
						"POSITION":4,
						"NORMAL":5,
						"TEXCOORD_0":6
					},
					"indices":3
				}
			]
		},
		{
			"name":"Icosphere.016",
			"primitives":[
				{
					"attributes":{
						"POSITION":7,
						"NORMAL":8,
						"TEXCOORD_0":9
					},
					"indices":3
				}
			]
		},
		{
			"name":"Icosphere.017",
			"primitives":[
				{
					"attributes":{
						"POSITION":10,
						"NORMAL":11,
						"TEXCOORD_0":12
					},
					"indices":3
				}
			]
		},
		{
			"name":"Icosphere.018",
			"primitives":[
				{
					"attributes":{
						"POSITION":13,
						"NORMAL":14,
						"TEXCOORD_0":15
					},
					"indices":3
				}
			]
		},
		{
			"name":"Icosphere.019",
			"primitives":[
				{
					"attributes":{
						"POSITION":16,
						"NORMAL":17,
						"TEXCOORD_0":18
					},
					"indices":3
				}
			]
		},
		{
			"name":"Icosphere.020",
			"primitives":[
				{
					"attributes":{
						"POSITION":19,
						"NORMAL":20,
						"TEXCOORD_0":21
					},
					"indices":3
				}
			]
		},
		{
			"name":"Icosphere.021",
			"primitives":[
				{
					"attributes":{
						"POSITION":22,
						"NORMAL":23,
						"TEXCOORD_0":24
					},
					"indices":3
				}
			]
		},
		{
			"name":"Icosphere.022",
			"primitives":[
				{
					"attributes":{
						"POSITION":25,
						"NORMAL":26,
						"TEXCOORD_0":27
					},
					"indices":3
				}
			]
		},
		{
			"name":"Icosphere.023",
			"primitives":[
				{
					"attributes":{
						"POSITION":28,
						"NORMAL":29,
						"TEXCOORD_0":30
					},
					"indices":31
				}
			]
		},
		{
			"name":"Icosphere.024",
			"primitives":[
				{
					"attributes":{
						"POSITION":32,
						"NORMAL":33,
						"TEXCOORD_0":34
					},
					"indices":31
				}
			]
		},
		{
			"name":"Icosphere.025",
			"primitives":[
				{
					"attributes":{
						"POSITION":35,
						"NORMAL":36,
						"TEXCOORD_0":37
					},
					"indices":31
				}
			]
		},
		{
			"name":"Icosphere.026",
			"primitives":[
				{
					"attributes":{
						"POSITION":38,
						"NORMAL":39,
						"TEXCOORD_0":40
					},
					"indices":31
				}
			]
		},
		{
			"name":"Icosphere.027",
			"primitives":[
				{
					"attributes":{
						"POSITION":41,
						"NORMAL":42,
						"TEXCOORD_0":43
					},
					"indices":31
				}
			]
		},
		{
			"name":"Icosphere.028",
			"primitives":[
				{
					"attributes":{
						"POSITION":44,
						"NORMAL":45,
						"TEXCOORD_0":46
					},
					"indices":31
				}
			]
		},
		{
			"name":"Icosphere.029",
			"primitives":[
				{
					"attributes":{
						"POSITION":47,
						"NORMAL":48,
						"TEXCOORD_0":49
					},
					"indices":31
				}
			]
		}
	],
	"accessors":[
		{
			"bufferView":0,
			"componentType":5126,
			"count":3840,
			"max":[
				1,
				1,
				0.9999999403953552
			],
			"min":[
				-0.9999999403953552,
				-1,
				-0.9999999403953552
			],
			"type":"VEC3"
		},
		{
			"bufferView":1,
			"componentType":5126,
			"count":3840,
			"type":"VEC3"
		},
		{
			"bufferView":2,
			"componentType":5126,
			"count":3840,
			"type":"VEC2"
		},
		{
			"bufferView":3,
			"componentType":5123,
			"count":3840,
			"type":"SCALAR"
		},
		{
			"bufferView":4,
			"componentType":5126,
			"count":3840,
			"max":[
				1,
				1,
				0.9999999403953552
			],
			"min":[
				-0.9999999403953552,
				-1,
				-0.9999999403953552
			],
			"type":"VEC3"
		},
		{
			"bufferView":5,
			"componentType":5126,
			"count":3840,
			"type":"VEC3"
		},
		{
			"bufferView":6,
			"componentType":5126,
			"count":3840,
			"type":"VEC2"
		},
		{
			"bufferView":7,
			"componentType":5126,
			"count":3840,
			"max":[
				1,
				1,
				0.9999999403953552
			],
			"min":[
				-0.9999999403953552,
				-1,
				-0.9999999403953552
			],
			"type":"VEC3"
		},
		{
			"bufferView":8,
			"componentType":5126,
			"count":3840,
			"type":"VEC3"
		},
		{
			"bufferView":9,
			"componentType":5126,
			"count":3840,
			"type":"VEC2"
		},
		{
			"bufferView":10,
			"componentType":5126,
			"count":3840,
			"max":[
				1,
				1,
				0.9999999403953552
			],
			"min":[
				-0.9999999403953552,
				-1,
				-0.9999999403953552
			],
			"type":"VEC3"
		},
		{
			"bufferView":11,
			"componentType":5126,
			"count":3840,
			"type":"VEC3"
		},
		{
			"bufferView":12,
			"componentType":5126,
			"count":3840,
			"type":"VEC2"
		},
		{
			"bufferView":13,
			"componentType":5126,
			"count":3840,
			"max":[
				1,
				1,
				0.9999999403953552
			],
			"min":[
				-0.9999999403953552,
				-1,
				-0.9999999403953552
			],
			"type":"VEC3"
		},
		{
			"bufferView":14,
			"componentType":5126,
			"count":3840,
			"type":"VEC3"
		},
		{
			"bufferView":15,
			"componentType":5126,
			"count":3840,
			"type":"VEC2"
		},
		{
			"bufferView":16,
			"componentType":5126,
			"count":3840,
			"max":[
				1,
				1,
				0.9999999403953552
			],
			"min":[
				-0.9999999403953552,
				-1,
				-0.9999999403953552
			],
			"type":"VEC3"
		},
		{
			"bufferView":17,
			"componentType":5126,
			"count":3840,
			"type":"VEC3"
		},
		{
			"bufferView":18,
			"componentType":5126,
			"count":3840,
			"type":"VEC2"
		},
		{
			"bufferView":19,
			"componentType":5126,
			"count":3840,
			"max":[
				1,
				1,
				0.9999999403953552
			],
			"min":[
				-0.9999999403953552,
				-1,
				-0.9999999403953552
			],
			"type":"VEC3"
		},
		{
			"bufferView":20,
			"componentType":5126,
			"count":3840,
			"type":"VEC3"
		},
		{
			"bufferView":21,
			"componentType":5126,
			"count":3840,
			"type":"VEC2"
		},
		{
			"bufferView":22,
			"componentType":5126,
			"count":3840,
			"max":[
				1,
				1,
				0.9999999403953552
			],
			"min":[
				-0.9999999403953552,
				-1,
				-0.9999999403953552
			],
			"type":"VEC3"
		},
		{
			"bufferView":23,
			"componentType":5126,
			"count":3840,
			"type":"VEC3"
		},
		{
			"bufferView":24,
			"componentType":5126,
			"count":3840,
			"type":"VEC2"
		},
		{
			"bufferView":25,
			"componentType":5126,
			"count":3840,
			"max":[
				1,
				1,
				0.9999999403953552
			],
			"min":[
				-0.9999999403953552,
				-1,
				-0.9999999403953552
			],
			"type":"VEC3"
		},
		{
			"bufferView":26,
			"componentType":5126,
			"count":3840,
			"type":"VEC3"
		},
		{
			"bufferView":27,
			"componentType":5126,
			"count":3840,
			"type":"VEC2"
		},
		{
			"bufferView":28,
			"componentType":5126,
			"count":960,
			"max":[
				1,
				1,
				0.9999999403953552
			],
			"min":[
				-0.9999999403953552,
				-1,
				-0.9999999403953552
			],
			"type":"VEC3"
		},
		{
			"bufferView":29,
			"componentType":5126,
			"count":960,
			"type":"VEC3"
		},
		{
			"bufferView":30,
			"componentType":5126,
			"count":960,
			"type":"VEC2"
		},
		{
			"bufferView":31,
			"componentType":5123,
			"count":960,
			"type":"SCALAR"
		},
		{
			"bufferView":32,
			"componentType":5126,
			"count":960,
			"max":[
				1,
				1,
				0.9999999403953552
			],
			"min":[
				-0.9999999403953552,
				-1,
				-0.9999999403953552
			],
			"type":"VEC3"
		},
		{
			"bufferView":33,
			"componentType":5126,
			"count":960,
			"type":"VEC3"
		},
		{
			"bufferView":34,
			"componentType":5126,
			"count":960,
			"type":"VEC2"
		},
		{
			"bufferView":35,
			"componentType":5126,
			"count":960,
			"max":[
				1,
				1,
				0.9999999403953552
			],
			"min":[
				-0.9999999403953552,
				-1,
				-0.9999999403953552
			],
			"type":"VEC3"
		},
		{
			"bufferView":36,
			"componentType":5126,
			"count":960,
			"type":"VEC3"
		},
		{
			"bufferView":37,
			"componentType":5126,
			"count":960,
			"type":"VEC2"
		},
		{
			"bufferView":38,
			"componentType":5126,
			"count":960,
			"max":[
				1,
				1,
				0.9999999403953552
			],
			"min":[
				-0.9999999403953552,
				-1,
				-0.9999999403953552
			],
			"type":"VEC3"
		},
		{
			"bufferView":39,
			"componentType":5126,
			"count":960,
			"type":"VEC3"
		},
		{
			"bufferView":40,
			"componentType":5126,
			"count":960,
			"type":"VEC2"
		},
		{
			"bufferView":41,
			"componentType":5126,
			"count":960,
			"max":[
				1,
				1,
				0.9999999403953552
			],
			"min":[
				-0.9999999403953552,
				-1,
				-0.9999999403953552
			],
			"type":"VEC3"
		},
		{
			"bufferView":42,
			"componentType":5126,
			"count":960,
			"type":"VEC3"
		},
		{
			"bufferView":43,
			"componentType":5126,
			"count":960,
			"type":"VEC2"
		},
		{
			"bufferView":44,
			"componentType":5126,
			"count":960,
			"max":[
				1,
				1,
				0.9999999403953552
			],
			"min":[
				-0.9999999403953552,
				-1,
				-0.9999999403953552
			],
			"type":"VEC3"
		},
		{
			"bufferView":45,
			"componentType":5126,
			"count":960,
			"type":"VEC3"
		},
		{
			"bufferView":46,
			"componentType":5126,
			"count":960,
			"type":"VEC2"
		},
		{
			"bufferView":47,
			"componentType":5126,
			"count":960,
			"max":[
				1,
				1,
				0.9999999403953552
			],
			"min":[
				-0.9999999403953552,
				-1,
				-0.9999999403953552
			],
			"type":"VEC3"
		},
		{
			"bufferView":48,
			"componentType":5126,
			"count":960,
			"type":"VEC3"
		},
		{
			"bufferView":49,
			"componentType":5126,
			"count":960,
			"type":"VEC2"
		}
	],
	"bufferViews":[
		{
			"buffer":0,
			"byteLength":46080,
			"byteOffset":0,
			"target":34962
		},
		{
			"buffer":0,
			"byteLength":46080,
			"byteOffset":46080,
			"target":34962
		},
		{
			"buffer":0,
			"byteLength":30720,
			"byteOffset":92160,
			"target":34962
		},
		{
			"buffer":0,
			"byteLength":7680,
			"byteOffset":122880,
			"target":34963
		},
		{
			"buffer":0,
			"byteLength":46080,
			"byteOffset":130560,
			"target":34962
		},
		{
			"buffer":0,
			"byteLength":46080,
			"byteOffset":176640,
			"target":34962
		},
		{
			"buffer":0,
			"byteLength":30720,
			"byteOffset":222720,
			"target":34962
		},
		{
			"buffer":0,
			"byteLength":46080,
			"byteOffset":253440,
			"target":34962
		},
		{
			"buffer":0,
			"byteLength":46080,
			"byteOffset":299520,
			"target":34962
		},
		{
			"buffer":0,
			"byteLength":30720,
			"byteOffset":345600,
			"target":34962
		},
		{
			"buffer":0,
			"byteLength":46080,
			"byteOffset":376320,
			"target":34962
		},
		{
			"buffer":0,
			"byteLength":46080,
			"byteOffset":422400,
			"target":34962
		},
		{
			"buffer":0,
			"byteLength":30720,
			"byteOffset":468480,
			"target":34962
		},
		{
			"buffer":0,
			"byteLength":46080,
			"byteOffset":499200,
			"target":34962
		},
		{
			"buffer":0,
			"byteLength":46080,
			"byteOffset":545280,
			"target":34962
		},
		{
			"buffer":0,
			"byteLength":30720,
			"byteOffset":591360,
			"target":34962
		},
		{
			"buffer":0,
			"byteLength":46080,
			"byteOffset":622080,
			"target":34962
		},
		{
			"buffer":0,
			"byteLength":46080,
			"byteOffset":668160,
			"target":34962
		},
		{
			"buffer":0,
			"byteLength":30720,
			"byteOffset":714240,
			"target":34962
		},
		{
			"buffer":0,
			"byteLength":46080,
			"byteOffset":744960,
			"target":34962
		},
		{
			"buffer":0,
			"byteLength":46080,
			"byteOffset":791040,
			"target":34962
		},
		{
			"buffer":0,
			"byteLength":30720,
			"byteOffset":837120,
			"target":34962
		},
		{
			"buffer":0,
			"byteLength":46080,
			"byteOffset":867840,
			"target":34962
		},
		{
			"buffer":0,
			"byteLength":46080,
			"byteOffset":913920,
			"target":34962
		},
		{
			"buffer":0,
			"byteLength":30720,
			"byteOffset":960000,
			"target":34962
		},
		{
			"buffer":0,
			"byteLength":46080,
			"byteOffset":990720,
			"target":34962
		},
		{
			"buffer":0,
			"byteLength":46080,
			"byteOffset":1036800,
			"target":34962
		},
		{
			"buffer":0,
			"byteLength":30720,
			"byteOffset":1082880,
			"target":34962
		},
		{
			"buffer":0,
			"byteLength":11520,
			"byteOffset":1113600,
			"target":34962
		},
		{
			"buffer":0,
			"byteLength":11520,
			"byteOffset":1125120,
			"target":34962
		},
		{
			"buffer":0,
			"byteLength":7680,
			"byteOffset":1136640,
			"target":34962
		},
		{
			"buffer":0,
			"byteLength":1920,
			"byteOffset":1144320,
			"target":34963
		},
		{
			"buffer":0,
			"byteLength":11520,
			"byteOffset":1146240,
			"target":34962
		},
		{
			"buffer":0,
			"byteLength":11520,
			"byteOffset":1157760,
			"target":34962
		},
		{
			"buffer":0,
			"byteLength":7680,
			"byteOffset":1169280,
			"target":34962
		},
		{
			"buffer":0,
			"byteLength":11520,
			"byteOffset":1176960,
			"target":34962
		},
		{
			"buffer":0,
			"byteLength":11520,
			"byteOffset":1188480,
			"target":34962
		},
		{
			"buffer":0,
			"byteLength":7680,
			"byteOffset":1200000,
			"target":34962
		},
		{
			"buffer":0,
			"byteLength":11520,
			"byteOffset":1207680,
			"target":34962
		},
		{
			"buffer":0,
			"byteLength":11520,
			"byteOffset":1219200,
			"target":34962
		},
		{
			"buffer":0,
			"byteLength":7680,
			"byteOffset":1230720,
			"target":34962
		},
		{
			"buffer":0,
			"byteLength":11520,
			"byteOffset":1238400,
			"target":34962
		},
		{
			"buffer":0,
			"byteLength":11520,
			"byteOffset":1249920,
			"target":34962
		},
		{
			"buffer":0,
			"byteLength":7680,
			"byteOffset":1261440,
			"target":34962
		},
		{
			"buffer":0,
			"byteLength":11520,
			"byteOffset":1269120,
			"target":34962
		},
		{
			"buffer":0,
			"byteLength":11520,
			"byteOffset":1280640,
			"target":34962
		},
		{
			"buffer":0,
			"byteLength":7680,
			"byteOffset":1292160,
			"target":34962
		},
		{
			"buffer":0,
			"byteLength":11520,
			"byteOffset":1299840,
			"target":34962
		},
		{
			"buffer":0,
			"byteLength":11520,
			"byteOffset":1311360,
			"target":34962
		},
		{
			"buffer":0,
			"byteLength":7680,
			"byteOffset":1322880,
			"target":34962
		}
	],
	"buffers":[
		{
			"byteLength":1330560,
			"uri":"scene.bin"
		}
	]
}
