{
	"asset":{
		"generator":"Khronos glTF Blender I/O v4.4.56",
		"version":"2.0"
	},
	"scene":0,
	"scenes":[
		{
			"name":"Scene",
			"nodes":[
				0,
				1,
				2,
				3,
				4,
				5,
				6,
				7,
				8
			]
		}
	],
	"nodes":[
		{
			"mesh":0,
			"name":"Plane",
			"scale":[
				20,
				1,
				20
			]
		},
		{
			"mesh":1,
			"name":"Cube",
			"translation":[
				0,
				1,
				0
			]
		},
		{
			"mesh":2,
			"name":"Icosphere",
			"scale":[
				3,
				3,
				3
			],
			"translation":[
				3.060000419616699,
				1.529999852180481,
				-6.899999618530273
			]
		},
		{
			"mesh":3,
			"name":"Cylinder",
			"scale":[
				3,
				3,
				3
			],
			"translation":[
				-14.889999389648438,
				2.6499998569488525,
				4.809999942779541
			]
		},
		{
			"mesh":4,
			"name":"Cone",
			"rotation":[
				-0.026296773925423622,
				0.9007514715194702,
				0.3995085060596466,
				0.16836927831172943
			],
			"scale":[
				5,
				5,
				5
			],
			"translation":[
				11.079999923706055,
				4.059999942779541,
				12.9399995803833
			]
		},
		{
			"mesh":5,
			"name":"Torus",
			"rotation":[
				-0.7450827360153198,
				-0.03949323296546936,
				0.6441891193389893,
				0.16826286911964417
			],
			"scale":[
				3.000000238418579,
				3,
				3
			],
			"translation":[
				-1.1100002527236938,
				4.170000076293945,
				-9.380000114440918
			]
		},
		{
			"mesh":6,
			"name":"Torus.001",
			"rotation":[
				-0.7559876441955566,
				-0.08991395682096481,
				0.6391047239303589,
				0.10928568243980408
			],
			"scale":[
				3.000000238418579,
				3.000000238418579,
				3
			],
			"translation":[
				12.09000015258789,
				3.259999990463257,
				0
			]
		},
		{
			"mesh":7,
			"name":"Cylinder.001",
			"scale":[
				1.25,
				3.119999885559082,
				2.7899999618530273
			],
			"translation":[
				-6.079999923706055,
				2.799999952316284,
				-4.799999713897705
			]
		},
		{
			"mesh":8,
			"name":"Suzanne",
			"rotation":[
				-0.20024998486042023,
				0.6581849455833435,
				0.20156513154506683,
				0.6971828937530518
			],
			"scale":[
				3,
				3,
				3
			],
			"translation":[
				-9.019999504089355,
				4.369999885559082,
				6.029999732971191
			]
		}
	],
	"materials":[
		{
			"doubleSided":true,
			"name":"Material.002",
			"pbrMetallicRoughness":{
				"baseColorFactor":[
					0.8002511262893677,
					0,
					0.0006318649393506348,
					1
				],
				"metallicFactor":0,
				"roughnessFactor":0.5
			}
		},
		{
			"doubleSided":true,
			"name":"Material.001",
			"pbrMetallicRoughness":{
				"baseColorFactor":[
					0.003177545964717865,
					0,
					0.8008192181587219,
					1
				],
				"metallicFactor":0,
				"roughnessFactor":0.5
			}
		}
	],
	"meshes":[
		{
			"name":"Plane",
			"primitives":[
				{
					"attributes":{
						"POSITION":0,
						"NORMAL":1,
						"TEXCOORD_0":2
					},
					"indices":3
				}
			]
		},
		{
			"name":"Cube.001",
			"primitives":[
				{
					"attributes":{
						"POSITION":4,
						"NORMAL":5,
						"TEXCOORD_0":6
					},
					"indices":7
				}
			]
		},
		{
			"name":"Icosphere.001",
			"primitives":[
				{
					"attributes":{
						"POSITION":8,
						"NORMAL":9,
						"TEXCOORD_0":10
					},
					"indices":11,
					"material":0
				}
			]
		},
		{
			"name":"Cylinder",
			"primitives":[
				{
					"attributes":{
						"POSITION":12,
						"NORMAL":13,
						"TEXCOORD_0":14
					},
					"indices":15
				}
			]
		},
		{
			"name":"Cone",
			"primitives":[
				{
					"attributes":{
						"POSITION":16,
						"NORMAL":17,
						"TEXCOORD_0":18
					},
					"indices":19
				}
			]
		},
		{
			"name":"Torus",
			"primitives":[
				{
					"attributes":{
						"POSITION":20,
						"NORMAL":21,
						"TEXCOORD_0":22
					},
					"indices":23
				}
			]
		},
		{
			"name":"Torus.001",
			"primitives":[
				{
					"attributes":{
						"POSITION":24,
						"NORMAL":25,
						"TEXCOORD_0":26
					},
					"indices":23
				}
			]
		},
		{
			"name":"Cylinder.001",
			"primitives":[
				{
					"attributes":{
						"POSITION":27,
						"NORMAL":28,
						"TEXCOORD_0":29
					},
					"indices":15
				}
			]
		},
		{
			"name":"Suzanne.001",
			"primitives":[
				{
					"attributes":{
						"POSITION":30,
						"NORMAL":31,
						"TEXCOORD_0":32
					},
					"indices":33,
					"material":1
				}
			]
		}
	],
	"accessors":[
		{
			"bufferView":0,
			"componentType":5126,
			"count":4,
			"max":[
				1,
				0,
				1
			],
			"min":[
				-1,
				0,
				-1
			],
			"type":"VEC3"
		},
		{
			"bufferView":1,
			"componentType":5126,
			"count":4,
			"type":"VEC3"
		},
		{
			"bufferView":2,
			"componentType":5126,
			"count":4,
			"type":"VEC2"
		},
		{
			"bufferView":3,
			"componentType":5123,
			"count":6,
			"type":"SCALAR"
		},
		{
			"bufferView":4,
			"componentType":5126,
			"count":24,
			"max":[
				1,
				1,
				1
			],
			"min":[
				-1,
				-1,
				-1
			],
			"type":"VEC3"
		},
		{
			"bufferView":5,
			"componentType":5126,
			"count":24,
			"type":"VEC3"
		},
		{
			"bufferView":6,
			"componentType":5126,
			"count":24,
			"type":"VEC2"
		},
		{
			"bufferView":7,
			"componentType":5123,
			"count":36,
			"type":"SCALAR"
		},
		{
			"bufferView":8,
			"componentType":5126,
			"count":10593,
			"max":[
				1,
				1,
				0.9999999403953552
			],
			"min":[
				-0.9999999403953552,
				-1,
				-0.9999999403953552
			],
			"type":"VEC3"
		},
		{
			"bufferView":9,
			"componentType":5126,
			"count":10593,
			"type":"VEC3"
		},
		{
			"bufferView":10,
			"componentType":5126,
			"count":10593,
			"type":"VEC2"
		},
		{
			"bufferView":11,
			"componentType":5123,
			"count":61440,
			"type":"SCALAR"
		},
		{
			"bufferView":12,
			"componentType":5126,
			"count":130,
			"max":[
				1,
				1,
				1
			],
			"min":[
				-1,
				-1,
				-1
			],
			"type":"VEC3"
		},
		{
			"bufferView":13,
			"componentType":5126,
			"count":130,
			"type":"VEC3"
		},
		{
			"bufferView":14,
			"componentType":5126,
			"count":130,
			"type":"VEC2"
		},
		{
			"bufferView":15,
			"componentType":5123,
			"count":372,
			"type":"SCALAR"
		},
		{
			"bufferView":16,
			"componentType":5126,
			"count":65,
			"max":[
				1,
				1,
				1
			],
			"min":[
				-1,
				-1,
				-1
			],
			"type":"VEC3"
		},
		{
			"bufferView":17,
			"componentType":5126,
			"count":65,
			"type":"VEC3"
		},
		{
			"bufferView":18,
			"componentType":5126,
			"count":65,
			"type":"VEC2"
		},
		{
			"bufferView":19,
			"componentType":5123,
			"count":186,
			"type":"SCALAR"
		},
		{
			"bufferView":20,
			"componentType":5126,
			"count":637,
			"max":[
				1.0800000429153442,
				0.25,
				1.0800000429153442
			],
			"min":[
				-1.0800000429153442,
				-0.25,
				-1.0800000429153442
			],
			"type":"VEC3"
		},
		{
			"bufferView":21,
			"componentType":5126,
			"count":637,
			"type":"VEC3"
		},
		{
			"bufferView":22,
			"componentType":5126,
			"count":637,
			"type":"VEC2"
		},
		{
			"bufferView":23,
			"componentType":5123,
			"count":3456,
			"type":"SCALAR"
		},
		{
			"bufferView":24,
			"componentType":5126,
			"count":637,
			"max":[
				1.0800000429153442,
				0.25,
				1.0800000429153442
			],
			"min":[
				-1.0800000429153442,
				-0.25,
				-1.0800000429153442
			],
			"type":"VEC3"
		},
		{
			"bufferView":25,
			"componentType":5126,
			"count":637,
			"type":"VEC3"
		},
		{
			"bufferView":26,
			"componentType":5126,
			"count":637,
			"type":"VEC2"
		},
		{
			"bufferView":27,
			"componentType":5126,
			"count":130,
			"max":[
				1,
				1,
				1
			],
			"min":[
				-1,
				-1,
				-1
			],
			"type":"VEC3"
		},
		{
			"bufferView":28,
			"componentType":5126,
			"count":130,
			"type":"VEC3"
		},
		{
			"bufferView":29,
			"componentType":5126,
			"count":130,
			"type":"VEC2"
		},
		{
			"bufferView":30,
			"componentType":5126,
			"count":555,
			"max":[
				1.3671875,
				0.984375,
				0.8515625
			],
			"min":[
				-1.3671875,
				-0.984375,
				-0.8515625
			],
			"type":"VEC3"
		},
		{
			"bufferView":31,
			"componentType":5126,
			"count":555,
			"type":"VEC3"
		},
		{
			"bufferView":32,
			"componentType":5126,
			"count":555,
			"type":"VEC2"
		},
		{
			"bufferView":33,
			"componentType":5123,
			"count":2904,
			"type":"SCALAR"
		}
	],
	"bufferViews":[
		{
			"buffer":0,
			"byteLength":48,
			"byteOffset":0,
			"target":34962
		},
		{
			"buffer":0,
			"byteLength":48,
			"byteOffset":48,
			"target":34962
		},
		{
			"buffer":0,
			"byteLength":32,
			"byteOffset":96,
			"target":34962
		},
		{
			"buffer":0,
			"byteLength":12,
			"byteOffset":128,
			"target":34963
		},
		{
			"buffer":0,
			"byteLength":288,
			"byteOffset":140,
			"target":34962
		},
		{
			"buffer":0,
			"byteLength":288,
			"byteOffset":428,
			"target":34962
		},
		{
			"buffer":0,
			"byteLength":192,
			"byteOffset":716,
			"target":34962
		},
		{
			"buffer":0,
			"byteLength":72,
			"byteOffset":908,
			"target":34963
		},
		{
			"buffer":0,
			"byteLength":127116,
			"byteOffset":980,
			"target":34962
		},
		{
			"buffer":0,
			"byteLength":127116,
			"byteOffset":128096,
			"target":34962
		},
		{
			"buffer":0,
			"byteLength":84744,
			"byteOffset":255212,
			"target":34962
		},
		{
			"buffer":0,
			"byteLength":122880,
			"byteOffset":339956,
			"target":34963
		},
		{
			"buffer":0,
			"byteLength":1560,
			"byteOffset":462836,
			"target":34962
		},
		{
			"buffer":0,
			"byteLength":1560,
			"byteOffset":464396,
			"target":34962
		},
		{
			"buffer":0,
			"byteLength":1040,
			"byteOffset":465956,
			"target":34962
		},
		{
			"buffer":0,
			"byteLength":744,
			"byteOffset":466996,
			"target":34963
		},
		{
			"buffer":0,
			"byteLength":780,
			"byteOffset":467740,
			"target":34962
		},
		{
			"buffer":0,
			"byteLength":780,
			"byteOffset":468520,
			"target":34962
		},
		{
			"buffer":0,
			"byteLength":520,
			"byteOffset":469300,
			"target":34962
		},
		{
			"buffer":0,
			"byteLength":372,
			"byteOffset":469820,
			"target":34963
		},
		{
			"buffer":0,
			"byteLength":7644,
			"byteOffset":470192,
			"target":34962
		},
		{
			"buffer":0,
			"byteLength":7644,
			"byteOffset":477836,
			"target":34962
		},
		{
			"buffer":0,
			"byteLength":5096,
			"byteOffset":485480,
			"target":34962
		},
		{
			"buffer":0,
			"byteLength":6912,
			"byteOffset":490576,
			"target":34963
		},
		{
			"buffer":0,
			"byteLength":7644,
			"byteOffset":497488,
			"target":34962
		},
		{
			"buffer":0,
			"byteLength":7644,
			"byteOffset":505132,
			"target":34962
		},
		{
			"buffer":0,
			"byteLength":5096,
			"byteOffset":512776,
			"target":34962
		},
		{
			"buffer":0,
			"byteLength":1560,
			"byteOffset":517872,
			"target":34962
		},
		{
			"buffer":0,
			"byteLength":1560,
			"byteOffset":519432,
			"target":34962
		},
		{
			"buffer":0,
			"byteLength":1040,
			"byteOffset":520992,
			"target":34962
		},
		{
			"buffer":0,
			"byteLength":6660,
			"byteOffset":522032,
			"target":34962
		},
		{
			"buffer":0,
			"byteLength":6660,
			"byteOffset":528692,
			"target":34962
		},
		{
			"buffer":0,
			"byteLength":4440,
			"byteOffset":535352,
			"target":34962
		},
		{
			"buffer":0,
			"byteLength":5808,
			"byteOffset":539792,
			"target":34963
		}
	],
	"buffers":[
		{
			"byteLength":545600,
			"uri":"shadowTest.bin"
		}
	]
}
