{
	"asset":{
		"generator":"Khronos glTF Blender I/O v4.4.56",
		"version":"2.0"
	},
	"extensionsUsed":[
		"KHR_materials_specular",
		"KHR_materials_ior"
	],
	"scene":0,
	"scenes":[
		{
			"name":"Scene",
			"nodes":[
				0
			]
		}
	],
	"nodes":[
		{
			"mesh":0,
			"name":"crate"
		}
	],
	"materials":[
		{
			"doubleSided":true,
			"extensions":{
				"KHR_materials_specular":{
					"specularFactor":0.019999999552965164
				},
				"KHR_materials_ior":{
					"ior":1.4500000476837158
				}
			},
			"name":"fantasy_props01_mat",
			"normalTexture":{
				"index":0
			},
			"pbrMetallicRoughness":{
				"baseColorTexture":{
					"index":1
				},
				"metallicRoughnessTexture":{
					"index":2
				}
			}
		}
	],
	"meshes":[
		{
			"name":"Cube.003",
			"primitives":[
				{
					"attributes":{
						"POSITION":0,
						"NORMAL":1,
						"TEXCOORD_0":2
					},
					"indices":3,
					"material":0
				}
			]
		}
	],
	"textures":[
		{
			"sampler":0,
			"source":0
		},
		{
			"sampler":0,
			"source":1
		},
		{
			"sampler":0,
			"source":2
		}
	],
	"images":[
		{
			"mimeType":"image/jpeg",
			"name":"T_fantasy_props01_NormalGL",
			"uri":"textures/T_fantasy_props01_NormalGL.jpg"
		},
		{
			"mimeType":"image/jpeg",
			"name":"T_fantasy_props01_BaseColor",
			"uri":"textures/T_fantasy_props01_BaseColor.jpg"
		},
		{
			"mimeType":"image/png",
			"name":"T_fantasy_props01_Metallic-T_fantasy_props01_Roughness",
			"uri":"textures/T_fantasy_props01_Metallic-T_fantasy_props01_Roughness.png"
		}
	],
	"accessors":[
		{
			"bufferView":0,
			"componentType":5126,
			"count":978,
			"max":[
				0.2520526945590973,
				0.48222818970680237,
				0.24895410239696503
			],
			"min":[
				-0.25187093019485474,
				-0.0013915806775912642,
				-0.24930426478385925
			],
			"type":"VEC3"
		},
		{
			"bufferView":1,
			"componentType":5126,
			"count":978,
			"type":"VEC3"
		},
		{
			"bufferView":2,
			"componentType":5126,
			"count":978,
			"type":"VEC2"
		},
		{
			"bufferView":3,
			"componentType":5123,
			"count":3024,
			"type":"SCALAR"
		}
	],
	"bufferViews":[
		{
			"buffer":0,
			"byteLength":11736,
			"byteOffset":0,
			"target":34962
		},
		{
			"buffer":0,
			"byteLength":11736,
			"byteOffset":11736,
			"target":34962
		},
		{
			"buffer":0,
			"byteLength":7824,
			"byteOffset":23472,
			"target":34962
		},
		{
			"buffer":0,
			"byteLength":6048,
			"byteOffset":31296,
			"target":34963
		}
	],
	"samplers":[
		{
			"magFilter":9729,
			"minFilter":9987
		}
	],
	"buffers":[
		{
			"byteLength":37344,
			"uri":"crate.bin"
		}
	]
}
