{
	"asset":{
		"generator":"Khronos glTF Blender I/O v4.4.56",
		"version":"2.0"
	},
	"extensionsUsed":[
		"KHR_materials_specular",
		"KHR_materials_ior"
	],
	"scene":0,
	"scenes":[
		{
			"name":"Scene",
			"nodes":[
				0
			]
		}
	],
	"nodes":[
		{
			"mesh":0,
			"name":"wagon"
		}
	],
	"materials":[
		{
			"doubleSided":true,
			"extensions":{
				"KHR_materials_specular":{
					"specularFactor":0.02199999988079071
				},
				"KHR_materials_ior":{
					"ior":1.4500000476837158
				}
			},
			"name":"fantasy_props04_mat",
			"normalTexture":{
				"index":0
			},
			"pbrMetallicRoughness":{
				"baseColorTexture":{
					"index":1
				},
				"metallicRoughnessTexture":{
					"index":2
				}
			}
		}
	],
	"meshes":[
		{
			"name":"Cube.009",
			"primitives":[
				{
					"attributes":{
						"POSITION":0,
						"NORMAL":1,
						"TEXCOORD_0":2
					},
					"indices":3,
					"material":0
				}
			]
		}
	],
	"textures":[
		{
			"sampler":0,
			"source":0
		},
		{
			"sampler":0,
			"source":1
		},
		{
			"sampler":0,
			"source":2
		}
	],
	"images":[
		{
			"mimeType":"image/jpeg",
			"name":"T_fantasy_props04_NormalGL",
			"uri":"textures/T_fantasy_props04_NormalGL.jpg"
		},
		{
			"mimeType":"image/jpeg",
			"name":"T_fantasy_props04_BaseColor",
			"uri":"textures/T_fantasy_props04_BaseColor.jpg"
		},
		{
			"mimeType":"image/png",
			"name":"T_fantasy_props04_Metallic-T_fantasy_props04_Roughness",
			"uri":"textures/T_fantasy_props04_Metallic-T_fantasy_props04_Roughness.png"
		}
	],
	"accessors":[
		{
			"bufferView":0,
			"componentType":5126,
			"count":3362,
			"max":[
				0.7930066585540771,
				1.1945332288742065,
				1.9786297082901
			],
			"min":[
				-0.7930066585540771,
				-0.07376924157142639,
				-0.9117762446403503
			],
			"type":"VEC3"
		},
		{
			"bufferView":1,
			"componentType":5126,
			"count":3362,
			"type":"VEC3"
		},
		{
			"bufferView":2,
			"componentType":5126,
			"count":3362,
			"type":"VEC2"
		},
		{
			"bufferView":3,
			"componentType":5123,
			"count":11556,
			"type":"SCALAR"
		}
	],
	"bufferViews":[
		{
			"buffer":0,
			"byteLength":40344,
			"byteOffset":0,
			"target":34962
		},
		{
			"buffer":0,
			"byteLength":40344,
			"byteOffset":40344,
			"target":34962
		},
		{
			"buffer":0,
			"byteLength":26896,
			"byteOffset":80688,
			"target":34962
		},
		{
			"buffer":0,
			"byteLength":23112,
			"byteOffset":107584,
			"target":34963
		}
	],
	"samplers":[
		{
			"magFilter":9729,
			"minFilter":9987
		}
	],
	"buffers":[
		{
			"byteLength":130696,
			"uri":"wagon.bin"
		}
	]
}
