{
	"asset":{
		"generator":"Khronos glTF Blender I/O v4.4.56",
		"version":"2.0"
	},
	"extensionsUsed":[
		"KHR_materials_specular",
		"KHR_materials_ior"
	],
	"scene":0,
	"scenes":[
		{
			"name":"Scene",
			"nodes":[
				0
			]
		}
	],
	"nodes":[
		{
			"mesh":0,
			"name":"fence"
		}
	],
	"materials":[
		{
			"doubleSided":true,
			"extensions":{
				"KHR_materials_specular":{
					"specularFactor":0.019999999552965164
				},
				"KHR_materials_ior":{
					"ior":1.4500000476837158
				}
			},
			"name":"fantasy_props06_mat",
			"normalTexture":{
				"index":0
			},
			"pbrMetallicRoughness":{
				"baseColorTexture":{
					"index":1
				},
				"metallicRoughnessTexture":{
					"index":2
				}
			}
		}
	],
	"meshes":[
		{
			"name":"Cube.001",
			"primitives":[
				{
					"attributes":{
						"POSITION":0,
						"NORMAL":1,
						"TEXCOORD_0":2
					},
					"indices":3,
					"material":0
				}
			]
		}
	],
	"textures":[
		{
			"sampler":0,
			"source":0
		},
		{
			"sampler":0,
			"source":1
		},
		{
			"sampler":0,
			"source":2
		}
	],
	"images":[
		{
			"mimeType":"image/jpeg",
			"name":"T_fantasy_props06_NormalGL",
			"uri":"textures/T_fantasy_props06_NormalGL.jpg"
		},
		{
			"mimeType":"image/jpeg",
			"name":"T_fantasy_props06_BaseColor",
			"uri":"textures/T_fantasy_props06_BaseColor.jpg"
		},
		{
			"mimeType":"image/png",
			"name":"T_fantasy_props06_Metallic-T_fantasy_props06_Roughness",
			"uri":"textures/T_fantasy_props06_Metallic-T_fantasy_props06_Roughness.png"
		}
	],
	"accessors":[
		{
			"bufferView":0,
			"componentType":5126,
			"count":519,
			"max":[
				1.0883835554122925,
				1.3708643913269043,
				0.09722769260406494
			],
			"min":[
				-1.0825743675231934,
				-0.03792697191238403,
				-0.07656741142272949
			],
			"type":"VEC3"
		},
		{
			"bufferView":1,
			"componentType":5126,
			"count":519,
			"type":"VEC3"
		},
		{
			"bufferView":2,
			"componentType":5126,
			"count":519,
			"type":"VEC2"
		},
		{
			"bufferView":3,
			"componentType":5123,
			"count":2124,
			"type":"SCALAR"
		}
	],
	"bufferViews":[
		{
			"buffer":0,
			"byteLength":6228,
			"byteOffset":0,
			"target":34962
		},
		{
			"buffer":0,
			"byteLength":6228,
			"byteOffset":6228,
			"target":34962
		},
		{
			"buffer":0,
			"byteLength":4152,
			"byteOffset":12456,
			"target":34962
		},
		{
			"buffer":0,
			"byteLength":4248,
			"byteOffset":16608,
			"target":34963
		}
	],
	"samplers":[
		{
			"magFilter":9729,
			"minFilter":9987
		}
	],
	"buffers":[
		{
			"byteLength":20856,
			"uri":"fence.bin"
		}
	]
}
