{
	"asset":{
		"generator":"Khronos glTF Blender I/O v4.4.56",
		"version":"2.0"
	},
	"scene":0,
	"scenes":[
		{
			"name":"Scene",
			"nodes":[
				0,
				1,
				2,
				3,
				4,
				5,
				6,
				7,
				8
			]
		}
	],
	"nodes":[
		{
			"mesh":0,
			"name":"Text",
			"rotation":[
				0.7071068286895752,
				0,
				0,
				0.7071068286895752
			],
			"translation":[
				-9.5,
				0.15000000596046448,
				0
			]
		},
		{
			"mesh":1,
			"name":"Cube",
			"rotation":[
				0,
				-0.7071068286895752,
				0,
				0.7071068286895752
			],
			"scale":[
				10,
				0.10000000149011612,
				0.10000000149011612
			]
		},
		{
			"mesh":2,
			"name":"Text.001",
			"rotation":[
				0.7071068286895752,
				0,
				0,
				0.7071068286895752
			],
			"translation":[
				0,
				0.15000000596046448,
				8.5
			]
		},
		{
			"mesh":3,
			"name":"Cube.001",
			"rotation":[
				0,
				0,
				0.7071068286895752,
				0.7071068286895752
			],
			"scale":[
				10,
				0.10000000149011612,
				0.10000000149011612
			]
		},
		{
			"mesh":4,
			"name":"Text.002",
			"rotation":[
				0.7071068286895752,
				0,
				0,
				0.7071068286895752
			],
			"translation":[
				0,
				-8.5,
				0
			]
		},
		{
			"mesh":5,
			"name":"Text.003",
			"rotation":[
				0.7071068286895752,
				0,
				0,
				0.7071068286895752
			],
			"translation":[
				0,
				0.15000000596046448,
				-8.5
			]
		},
		{
			"mesh":6,
			"name":"Cube.002",
			"scale":[
				10,
				0.10000000149011612,
				0.10000000149011612
			]
		},
		{
			"mesh":7,
			"name":"Text.004",
			"rotation":[
				0.7071068286895752,
				0,
				0,
				0.7071068286895752
			],
			"translation":[
				8.5,
				0.15000000596046448,
				0
			]
		},
		{
			"mesh":8,
			"name":"Text.005",
			"rotation":[
				0.7071068286895752,
				0,
				0,
				0.7071068286895752
			],
			"translation":[
				0,
				8.5,
				0
			]
		}
	],
	"materials":[
		{
			"doubleSided":true,
			"name":"Material.001",
			"pbrMetallicRoughness":{
				"baseColorFactor":[
					0.8006061315536499,
					0.0008120147394947708,
					0,
					1
				],
				"metallicFactor":0,
				"roughnessFactor":0.5
			}
		},
		{
			"doubleSided":true,
			"name":"Material.004",
			"pbrMetallicRoughness":{
				"baseColorFactor":[
					0,
					0.005338843911886215,
					0.8010476231575012,
					1
				],
				"metallicFactor":0,
				"roughnessFactor":0.5
			}
		},
		{
			"doubleSided":true,
			"name":"Material.003",
			"pbrMetallicRoughness":{
				"baseColorFactor":[
					0.0034195655025541782,
					0.8012280464172363,
					0,
					1
				],
				"metallicFactor":0,
				"roughnessFactor":0.5
			}
		},
		{
			"doubleSided":true,
			"name":"Material.005",
			"pbrMetallicRoughness":{
				"baseColorFactor":[
					0.8006061315536499,
					0.0008120147394947708,
					0,
					1
				],
				"metallicFactor":0,
				"roughnessFactor":0.5
			}
		},
		{
			"doubleSided":true,
			"name":"Material.006",
			"pbrMetallicRoughness":{
				"baseColorFactor":[
					0.0034195655025541782,
					0.8012280464172363,
					0,
					1
				],
				"metallicFactor":0,
				"roughnessFactor":0.5
			}
		}
	],
	"meshes":[
		{
			"name":"Text",
			"primitives":[
				{
					"attributes":{
						"POSITION":0,
						"NORMAL":1,
						"TEXCOORD_0":2
					},
					"indices":3,
					"material":0
				}
			]
		},
		{
			"name":"Cube.002",
			"primitives":[
				{
					"attributes":{
						"POSITION":4,
						"NORMAL":5,
						"TEXCOORD_0":6
					},
					"indices":7
				}
			]
		},
		{
			"name":"Text.001",
			"primitives":[
				{
					"attributes":{
						"POSITION":8,
						"NORMAL":9,
						"TEXCOORD_0":10
					},
					"indices":11,
					"material":1
				}
			]
		},
		{
			"name":"Cube.003",
			"primitives":[
				{
					"attributes":{
						"POSITION":12,
						"NORMAL":13,
						"TEXCOORD_0":14
					},
					"indices":7
				}
			]
		},
		{
			"name":"Text.002",
			"primitives":[
				{
					"attributes":{
						"POSITION":15,
						"NORMAL":16,
						"TEXCOORD_0":17
					},
					"indices":18,
					"material":2
				}
			]
		},
		{
			"name":"Text.003",
			"primitives":[
				{
					"attributes":{
						"POSITION":19,
						"NORMAL":20,
						"TEXCOORD_0":21
					},
					"indices":22,
					"material":1
				}
			]
		},
		{
			"name":"Cube.004",
			"primitives":[
				{
					"attributes":{
						"POSITION":23,
						"NORMAL":24,
						"TEXCOORD_0":25
					},
					"indices":7
				}
			]
		},
		{
			"name":"Text.004",
			"primitives":[
				{
					"attributes":{
						"POSITION":26,
						"NORMAL":27,
						"TEXCOORD_0":28
					},
					"indices":29,
					"material":3
				}
			]
		},
		{
			"name":"Text.005",
			"primitives":[
				{
					"attributes":{
						"POSITION":30,
						"NORMAL":31,
						"TEXCOORD_0":32
					},
					"indices":33,
					"material":4
				}
			]
		}
	],
	"accessors":[
		{
			"bufferView":0,
			"componentType":5126,
			"count":68,
			"max":[
				1.0290000438690186,
				0.04999999701976776,
				0
			],
			"min":[
				0.04000000283122063,
				-0.04999999701976776,
				-0.6820000410079956
			],
			"type":"VEC3"
		},
		{
			"bufferView":1,
			"componentType":5126,
			"count":68,
			"type":"VEC3"
		},
		{
			"bufferView":2,
			"componentType":5126,
			"count":68,
			"type":"VEC2"
		},
		{
			"bufferView":3,
			"componentType":5123,
			"count":168,
			"type":"SCALAR"
		},
		{
			"bufferView":4,
			"componentType":5126,
			"count":24,
			"max":[
				1,
				1,
				1
			],
			"min":[
				-1,
				-1,
				-1
			],
			"type":"VEC3"
		},
		{
			"bufferView":5,
			"componentType":5126,
			"count":24,
			"type":"VEC3"
		},
		{
			"bufferView":6,
			"componentType":5126,
			"count":24,
			"type":"VEC2"
		},
		{
			"bufferView":7,
			"componentType":5123,
			"count":36,
			"type":"SCALAR"
		},
		{
			"bufferView":8,
			"componentType":5126,
			"count":52,
			"max":[
				0.9540000557899475,
				0.04999999701976776,
				0
			],
			"min":[
				0.04000000283122063,
				-0.04999999701976776,
				-0.6820000410079956
			],
			"type":"VEC3"
		},
		{
			"bufferView":9,
			"componentType":5126,
			"count":52,
			"type":"VEC3"
		},
		{
			"bufferView":10,
			"componentType":5126,
			"count":52,
			"type":"VEC2"
		},
		{
			"bufferView":11,
			"componentType":5123,
			"count":120,
			"type":"SCALAR"
		},
		{
			"bufferView":12,
			"componentType":5126,
			"count":24,
			"max":[
				1,
				1,
				1
			],
			"min":[
				-1,
				-1,
				-1
			],
			"type":"VEC3"
		},
		{
			"bufferView":13,
			"componentType":5126,
			"count":24,
			"type":"VEC3"
		},
		{
			"bufferView":14,
			"componentType":5126,
			"count":24,
			"type":"VEC2"
		},
		{
			"bufferView":15,
			"componentType":5126,
			"count":56,
			"max":[
				0.9270000457763672,
				0.04999999701976776,
				0
			],
			"min":[
				0.04000000283122063,
				-0.04999999701976776,
				-0.6820000410079956
			],
			"type":"VEC3"
		},
		{
			"bufferView":16,
			"componentType":5126,
			"count":56,
			"type":"VEC3"
		},
		{
			"bufferView":17,
			"componentType":5126,
			"count":56,
			"type":"VEC2"
		},
		{
			"bufferView":18,
			"componentType":5123,
			"count":132,
			"type":"SCALAR"
		},
		{
			"bufferView":19,
			"componentType":5126,
			"count":88,
			"max":[
				1.2150001525878906,
				0.04999999701976776,
				0
			],
			"min":[
				0.0560000017285347,
				-0.04999999701976776,
				-0.6820000410079956
			],
			"type":"VEC3"
		},
		{
			"bufferView":20,
			"componentType":5126,
			"count":88,
			"type":"VEC3"
		},
		{
			"bufferView":21,
			"componentType":5126,
			"count":88,
			"type":"VEC2"
		},
		{
			"bufferView":22,
			"componentType":5123,
			"count":216,
			"type":"SCALAR"
		},
		{
			"bufferView":23,
			"componentType":5126,
			"count":24,
			"max":[
				1,
				1,
				1
			],
			"min":[
				-1,
				-1,
				-1
			],
			"type":"VEC3"
		},
		{
			"bufferView":24,
			"componentType":5126,
			"count":24,
			"type":"VEC3"
		},
		{
			"bufferView":25,
			"componentType":5126,
			"count":24,
			"type":"VEC2"
		},
		{
			"bufferView":26,
			"componentType":5126,
			"count":104,
			"max":[
				1.290000081062317,
				0.04999999701976776,
				0
			],
			"min":[
				0.0560000017285347,
				-0.04999999701976776,
				-0.6820000410079956
			],
			"type":"VEC3"
		},
		{
			"bufferView":27,
			"componentType":5126,
			"count":104,
			"type":"VEC3"
		},
		{
			"bufferView":28,
			"componentType":5126,
			"count":104,
			"type":"VEC2"
		},
		{
			"bufferView":29,
			"componentType":5123,
			"count":264,
			"type":"SCALAR"
		},
		{
			"bufferView":30,
			"componentType":5126,
			"count":92,
			"max":[
				1.1880000829696655,
				0.04999999701976776,
				0
			],
			"min":[
				0.0560000017285347,
				-0.04999999701976776,
				-0.6820000410079956
			],
			"type":"VEC3"
		},
		{
			"bufferView":31,
			"componentType":5126,
			"count":92,
			"type":"VEC3"
		},
		{
			"bufferView":32,
			"componentType":5126,
			"count":92,
			"type":"VEC2"
		},
		{
			"bufferView":33,
			"componentType":5123,
			"count":228,
			"type":"SCALAR"
		}
	],
	"bufferViews":[
		{
			"buffer":0,
			"byteLength":816,
			"byteOffset":0,
			"target":34962
		},
		{
			"buffer":0,
			"byteLength":816,
			"byteOffset":816,
			"target":34962
		},
		{
			"buffer":0,
			"byteLength":544,
			"byteOffset":1632,
			"target":34962
		},
		{
			"buffer":0,
			"byteLength":336,
			"byteOffset":2176,
			"target":34963
		},
		{
			"buffer":0,
			"byteLength":288,
			"byteOffset":2512,
			"target":34962
		},
		{
			"buffer":0,
			"byteLength":288,
			"byteOffset":2800,
			"target":34962
		},
		{
			"buffer":0,
			"byteLength":192,
			"byteOffset":3088,
			"target":34962
		},
		{
			"buffer":0,
			"byteLength":72,
			"byteOffset":3280,
			"target":34963
		},
		{
			"buffer":0,
			"byteLength":624,
			"byteOffset":3352,
			"target":34962
		},
		{
			"buffer":0,
			"byteLength":624,
			"byteOffset":3976,
			"target":34962
		},
		{
			"buffer":0,
			"byteLength":416,
			"byteOffset":4600,
			"target":34962
		},
		{
			"buffer":0,
			"byteLength":240,
			"byteOffset":5016,
			"target":34963
		},
		{
			"buffer":0,
			"byteLength":288,
			"byteOffset":5256,
			"target":34962
		},
		{
			"buffer":0,
			"byteLength":288,
			"byteOffset":5544,
			"target":34962
		},
		{
			"buffer":0,
			"byteLength":192,
			"byteOffset":5832,
			"target":34962
		},
		{
			"buffer":0,
			"byteLength":672,
			"byteOffset":6024,
			"target":34962
		},
		{
			"buffer":0,
			"byteLength":672,
			"byteOffset":6696,
			"target":34962
		},
		{
			"buffer":0,
			"byteLength":448,
			"byteOffset":7368,
			"target":34962
		},
		{
			"buffer":0,
			"byteLength":264,
			"byteOffset":7816,
			"target":34963
		},
		{
			"buffer":0,
			"byteLength":1056,
			"byteOffset":8080,
			"target":34962
		},
		{
			"buffer":0,
			"byteLength":1056,
			"byteOffset":9136,
			"target":34962
		},
		{
			"buffer":0,
			"byteLength":704,
			"byteOffset":10192,
			"target":34962
		},
		{
			"buffer":0,
			"byteLength":432,
			"byteOffset":10896,
			"target":34963
		},
		{
			"buffer":0,
			"byteLength":288,
			"byteOffset":11328,
			"target":34962
		},
		{
			"buffer":0,
			"byteLength":288,
			"byteOffset":11616,
			"target":34962
		},
		{
			"buffer":0,
			"byteLength":192,
			"byteOffset":11904,
			"target":34962
		},
		{
			"buffer":0,
			"byteLength":1248,
			"byteOffset":12096,
			"target":34962
		},
		{
			"buffer":0,
			"byteLength":1248,
			"byteOffset":13344,
			"target":34962
		},
		{
			"buffer":0,
			"byteLength":832,
			"byteOffset":14592,
			"target":34962
		},
		{
			"buffer":0,
			"byteLength":528,
			"byteOffset":15424,
			"target":34963
		},
		{
			"buffer":0,
			"byteLength":1104,
			"byteOffset":15952,
			"target":34962
		},
		{
			"buffer":0,
			"byteLength":1104,
			"byteOffset":17056,
			"target":34962
		},
		{
			"buffer":0,
			"byteLength":736,
			"byteOffset":18160,
			"target":34962
		},
		{
			"buffer":0,
			"byteLength":456,
			"byteOffset":18896,
			"target":34963
		}
	],
	"buffers":[
		{
			"byteLength":19352,
			"uri":"coordinateSpace.bin"
		}
	]
}
